<?xml version="1.0" encoding="utf-8"?>
<!-- Generator: Adobe Illustrator 22.0.0, SVG Export Plug-In . SVG Version: 6.00 Build 0)  -->
<svg version="1.1" id="Layer_1" xmlns="http://www.w3.org/2000/svg" xmlns:xlink="http://www.w3.org/1999/xlink" x="0px" y="0px"
	 viewBox="0 0 260 60" style="enable-background:new 0 0 260 60;" xml:space="preserve">
<style type="text/css">
	.st0{fill-rule:evenodd;clip-rule:evenodd;fill:#606161;}
	.st1{fill:#606161;}
	.st2{fill:#EFA829;}
	.st3{fill:#FFFFFF;}
</style>
<g>
	<g>
		<path class="st0" d="M102.6,33.8l-2.4,12.8h-2.3l2.1-10.3c-2,3.5-4,6.9-6,10.3h-1.1c-0.8-3.4-1.4-6.8-2-10.3l-1.8,10.3h-2
			l2.4-12.8h2.8c0.6,2.5,1.2,5.7,1.9,9.6c1.8-3.2,3.6-6.4,5.7-9.6H102.6z"/>
		<path class="st0" d="M113,37.5l-1.7,9.2h-2.2l0.4-2.1c-1.2,1.6-2.4,2.3-3.8,2.3c-0.6,0-1.2-0.2-1.5-0.5c-0.4-0.3-0.5-0.8-0.5-1.4
			c0-0.4,0.1-0.9,0.2-1.5l1.1-6h2.1l-1,5.5c-0.1,0.6-0.2,1-0.2,1.2c0,0.7,0.3,1,1,1c0.7,0,1.4-0.4,2-1.2c0.6-0.8,1.1-1.8,1.3-3.1
			l0.7-3.5H113z"/>
		<path class="st0" d="M123.5,39.1c0,0.3-0.1,0.8-0.2,1.5l-1.1,6H120l1-5.5c0.1-0.7,0.2-1.1,0.2-1.2c0-0.7-0.3-1-1-1
			c-0.7,0-1.4,0.4-2,1.2c-0.6,0.8-1.1,1.8-1.3,3.1l-0.7,3.5h-2.1l1.7-9.2h2.2l-0.4,2.1c1.1-1.6,2.4-2.3,3.8-2.3
			c0.6,0,1.2,0.2,1.5,0.5C123.3,38.1,123.5,38.5,123.5,39.1z"/>
		<path class="st0" d="M128.7,37.5l-1.7,9.2h-2.2l1.7-9.2H128.7z M129.4,34.5c0,0.4-0.1,0.8-0.4,1.1c-0.3,0.3-0.6,0.4-1,0.4
			c-0.3,0-0.6-0.1-0.8-0.3c-0.2-0.2-0.3-0.5-0.3-0.8c0-0.4,0.1-0.8,0.4-1.1c0.3-0.3,0.6-0.4,1-0.4c0.3,0,0.6,0.1,0.8,0.3
			C129.3,33.9,129.4,34.2,129.4,34.5z"/>
		<path class="st0" d="M137.9,38l-0.8,1.2c-0.5-0.3-1-0.5-1.5-0.5c-0.9,0-1.7,0.4-2.3,1.2c-0.6,0.8-1,1.7-1,2.9
			c0,0.8,0.2,1.5,0.5,1.9c0.3,0.5,0.8,0.7,1.4,0.7c0.5,0,1.2-0.2,1.9-0.6l0.6,1.2c-1.2,0.6-2.3,0.9-3.3,0.9c-1,0-1.9-0.3-2.5-1
			c-0.6-0.7-1-1.6-1-2.8c0-1.5,0.5-2.9,1.6-4c1.1-1.1,2.4-1.7,3.9-1.7C136.4,37.2,137.2,37.5,137.9,38z"/>
		<path class="st0" d="M141.9,37.5l-1.7,9.2h-2.2l1.7-9.2H141.9z M142.6,34.5c0,0.4-0.1,0.8-0.4,1.1c-0.3,0.3-0.6,0.4-1,0.4
			c-0.3,0-0.6-0.1-0.8-0.3c-0.2-0.2-0.3-0.5-0.3-0.8c0-0.4,0.1-0.8,0.4-1.1c0.3-0.3,0.6-0.4,1-0.4c0.3,0,0.6,0.1,0.8,0.3
			C142.5,33.9,142.6,34.2,142.6,34.5z"/>
		<path class="st0" d="M150.3,40.8c0-1.4-0.5-2.1-1.4-2.1c-0.8,0-1.5,0.6-2.1,1.8c-0.5,1-0.9,2.3-1.1,4c0.4,0.6,0.9,1,1.7,1
			c0.8,0,1.5-0.5,2.1-1.4C150,43.2,150.3,42.1,150.3,40.8z M152.6,40.8c0,1.8-0.6,3.3-1.8,4.6c-0.9,1-1.9,1.5-3.1,1.5
			c-0.9,0-1.6-0.3-2.3-1l-1,5.3h-2.2l2.5-13.7h2.2l-0.3,1.7c0.6-0.7,1.2-1.2,1.6-1.5c0.5-0.3,1-0.5,1.6-0.5c0.8,0,1.5,0.3,2,0.9
			C152.3,38.8,152.6,39.7,152.6,40.8z"/>
		<path class="st0" d="M160.6,40.1c0-0.4-0.1-0.8-0.4-1.1c-0.3-0.3-0.6-0.4-1.1-0.4c-0.8,0-1.5,0.5-2.1,1.4c-0.6,0.9-0.8,2-0.8,3.3
			c0,1.3,0.4,2,1.3,2c0.9,0,1.6-0.6,2.3-1.9C160.4,42.4,160.6,41.3,160.6,40.1z M163.4,37.5l-1.7,9.2h-2.2l0.3-1.5
			c-0.7,0.7-1.3,1.1-1.7,1.4c-0.5,0.2-1,0.4-1.5,0.4c-0.8,0-1.5-0.3-1.9-1c-0.5-0.6-0.7-1.5-0.7-2.6c0-1.6,0.5-3,1.5-4.2
			c1-1.2,2.1-1.8,3.5-1.8c0.9,0,1.6,0.4,2.2,1.3l0.2-1H163.4z"/>
		<polygon class="st0" points="169.2,33.2 166.7,46.6 164.5,46.6 167,33.2 		"/>
		<path class="st0" d="M181.1,40.1c0-0.4-0.1-0.8-0.4-1.1c-0.3-0.3-0.6-0.4-1.1-0.4c-0.8,0-1.5,0.5-2.1,1.4c-0.6,0.9-0.8,2-0.8,3.3
			c0,1.3,0.4,2,1.3,2c0.8,0,1.6-0.6,2.3-1.9C180.9,42.4,181.1,41.3,181.1,40.1z M184.7,33.2l-2.5,13.5H180l0.3-1.5
			c-0.7,0.7-1.3,1.1-1.7,1.4c-0.5,0.2-1,0.4-1.5,0.4c-0.8,0-1.5-0.3-1.9-1c-0.5-0.6-0.7-1.5-0.7-2.6c0-1.6,0.5-3,1.5-4.2
			c1-1.2,2.2-1.8,3.5-1.8c0.9,0,1.6,0.4,2.1,1.3l1-5.3H184.7z"/>
		<path class="st0" d="M191.5,39.6c0-0.3-0.1-0.5-0.3-0.7c-0.2-0.2-0.4-0.3-0.7-0.3c-0.6,0-1.2,0.3-1.8,0.9c-0.5,0.5-0.8,1.2-1,2
			c0.8,0,1.2,0,1.2-0.1c0.8,0,1.4-0.2,1.9-0.6C191.2,40.5,191.5,40,191.5,39.6z M193.4,39.4c0,1-0.5,1.8-1.5,2.4
			c-1,0.6-2.3,0.9-3.9,0.9c0,0-0.2,0-0.6,0v0.4c0,1.5,0.6,2.3,1.9,2.3c0.7,0,1.5-0.3,2.4-0.8l0.6,1.1c-1.4,0.8-2.7,1.1-3.8,1.1
			c-1.1,0-1.9-0.3-2.4-0.8c-0.6-0.7-1-1.5-1-2.7c0-1.6,0.6-3,1.7-4.2c1.2-1.2,2.5-1.8,4-1.8c0.8,0,1.4,0.2,1.9,0.6
			C193.2,38.2,193.4,38.8,193.4,39.4z"/>
		<polygon class="st0" points="209.1,33.8 208.8,35.4 205.3,35.4 203.2,46.6 200.9,46.6 202.9,35.4 199.4,35.4 199.7,33.8 		"/>
		<path class="st0" d="M211.8,37.5l-1.7,9.2H208l1.7-9.2H211.8z M212.5,34.5c0,0.4-0.1,0.8-0.4,1.1c-0.3,0.3-0.6,0.4-1,0.4
			c-0.3,0-0.6-0.1-0.8-0.3c-0.2-0.2-0.3-0.5-0.3-0.8c0-0.4,0.1-0.8,0.4-1.1c0.3-0.3,0.6-0.4,1-0.4c0.3,0,0.6,0.1,0.8,0.3
			C212.4,33.9,212.5,34.2,212.5,34.5z"/>
		<polygon class="st0" points="217.6,33.2 215.1,46.6 213,46.6 215.5,33.2 		"/>
		<polygon class="st0" points="228.1,33.8 227.9,35.4 224.3,35.4 222.2,46.6 219.9,46.6 222,35.4 218.5,35.4 218.7,33.8 		"/>
		<path class="st0" d="M230.9,37.5l-1.7,9.2H227l1.7-9.2H230.9z M231.6,34.5c0,0.4-0.1,0.8-0.4,1.1c-0.3,0.3-0.6,0.4-1,0.4
			c-0.3,0-0.6-0.1-0.8-0.3c-0.2-0.2-0.3-0.5-0.3-0.8c0-0.4,0.1-0.8,0.4-1.1c0.3-0.3,0.6-0.4,1-0.4c0.3,0,0.6,0.1,0.8,0.3
			C231.5,33.9,231.6,34.2,231.6,34.5z"/>
		<polygon class="st0" points="236.7,33.2 234.2,46.6 232,46.6 234.5,33.2 		"/>
		<polygon class="st0" points="95.9,14 95.6,15.6 91.7,15.6 91.1,19.3 94.8,19.3 94.5,20.9 90.8,20.9 89.9,25.3 94.5,25.3 
			94.2,26.9 87.3,26.9 89.7,14 		"/>
		<path class="st0" d="M110.8,19.4c0,0.3-0.1,0.9-0.3,1.8l-1,5.6h-2.1l1-5.3c0.1-0.8,0.2-1.3,0.2-1.5c0-0.6-0.3-0.9-0.9-0.9
			c-0.7,0-1.3,0.4-1.9,1.2c-0.6,0.8-1,1.7-1.2,2.9l-0.7,3.7h-2.2l1-5.2c0.2-0.9,0.3-1.5,0.3-1.6c0-0.6-0.3-1-0.8-1
			c-0.8,0-1.5,0.5-2.1,1.5c-0.5,0.7-0.8,1.6-1,2.7l-0.7,3.5h-2.1l1.7-9.2h2.2l-0.3,1.9c1.1-1.4,2.3-2.1,3.6-2.1
			c0.7,0,1.2,0.2,1.5,0.7c0.2,0.3,0.4,0.9,0.4,1.5c1.1-1.5,2.4-2.2,3.7-2.2C110.2,17.5,110.8,18.1,110.8,19.4z"/>
		<path class="st0" d="M119.4,21.1c0-1.4-0.5-2.1-1.4-2.1c-0.8,0-1.5,0.6-2.1,1.8c-0.5,1-0.9,2.3-1.1,4c0.4,0.6,0.9,1,1.7,1
			c0.8,0,1.5-0.5,2.1-1.4C119.1,23.4,119.4,22.3,119.4,21.1z M121.7,21c0,1.8-0.6,3.3-1.8,4.6c-0.9,1-1.9,1.5-3.1,1.5
			c-0.9,0-1.6-0.3-2.3-1l-1,5.3h-2.2l2.5-13.7h2.2l-0.3,1.7c0.6-0.7,1.2-1.2,1.6-1.5c0.5-0.3,1-0.5,1.6-0.5c0.8,0,1.5,0.3,2,0.9
			C121.5,19,121.7,19.9,121.7,21z"/>
		<path class="st0" d="M130.2,18.2l-1.1,1.6c-0.3-0.1-0.6-0.2-0.9-0.2c-0.7,0-1.2,0.3-1.6,1c-0.3,0.5-0.6,1.3-0.8,2.4l-0.7,3.8h-2.2
			l1.7-9.2h2.2l-0.3,1.7l0.7-0.9c0.5-0.7,1.1-1.1,1.6-1.1C129.3,17.5,129.7,17.7,130.2,18.2z"/>
		<path class="st0" d="M136.2,19.8c0-0.3-0.1-0.5-0.3-0.7c-0.2-0.2-0.4-0.3-0.7-0.3c-0.6,0-1.2,0.3-1.8,0.9c-0.5,0.5-0.8,1.2-1,2
			c0.8,0,1.2,0,1.2-0.1c0.8,0,1.4-0.2,1.9-0.6C136,20.7,136.2,20.3,136.2,19.8z M138.2,19.7c0,1-0.5,1.8-1.5,2.4
			c-1,0.6-2.3,0.9-3.9,0.9c0,0-0.2,0-0.6,0v0.4c0,1.5,0.6,2.3,1.9,2.3c0.7,0,1.5-0.3,2.4-0.8l0.6,1.1c-1.4,0.8-2.7,1.1-3.8,1.1
			c-1.1,0-1.9-0.3-2.4-0.8c-0.6-0.7-1-1.5-1-2.7c0-1.6,0.6-3,1.7-4.2c1.2-1.2,2.5-1.8,4-1.8c0.8,0,1.4,0.2,1.9,0.6
			C138,18.5,138.2,19,138.2,19.7z"/>
		<path class="st0" d="M145.3,18.3l-0.8,1.1c-0.5-0.4-1-0.5-1.4-0.5c-0.3,0-0.6,0.1-0.8,0.3c-0.2,0.2-0.3,0.4-0.3,0.7
			c0,0.3,0.1,0.6,0.4,1c0.2,0.3,0.5,0.6,0.7,0.8c0.6,0.7,1,1.2,1.2,1.6c0.2,0.4,0.3,0.8,0.3,1.2c0,0.8-0.3,1.4-1,1.9
			c-0.7,0.5-1.5,0.8-2.5,0.8c-1,0-1.9-0.3-2.8-0.8l0.7-1.4c0.7,0.5,1.3,0.8,2,0.8c0.4,0,0.8-0.1,1-0.3c0.3-0.2,0.4-0.5,0.4-0.9
			c0-0.3-0.1-0.5-0.2-0.8c-0.1-0.2-0.5-0.6-1-1.2c-0.6-0.6-0.9-1.1-1.1-1.4c-0.2-0.3-0.3-0.7-0.3-1.1c0-0.7,0.3-1.3,0.9-1.7
			c0.6-0.5,1.3-0.7,2.2-0.7C143.7,17.5,144.5,17.7,145.3,18.3z"/>
		<path class="st0" d="M153.1,20.3c0-0.4-0.1-0.8-0.4-1.1c-0.3-0.3-0.6-0.4-1.1-0.4c-0.8,0-1.5,0.5-2.1,1.4c-0.6,0.9-0.8,2-0.8,3.3
			c0,1.3,0.4,2,1.3,2c0.9,0,1.6-0.6,2.3-1.9C152.8,22.6,153.1,21.5,153.1,20.3z M155.9,17.7l-1.7,9.2H152l0.3-1.5
			c-0.7,0.7-1.3,1.1-1.7,1.4c-0.5,0.2-1,0.4-1.5,0.4c-0.8,0-1.5-0.3-1.9-1c-0.5-0.6-0.7-1.5-0.7-2.6c0-1.6,0.5-3,1.5-4.2
			c1-1.2,2.1-1.8,3.5-1.8c0.9,0,1.6,0.4,2.2,1.3l0.2-1H155.9z"/>
		<polygon class="st0" points="170.7,14 170.4,15.6 166.5,15.6 165.9,19.3 169.6,19.3 169.3,20.9 165.6,20.9 164.7,25.3 169.3,25.3 
			169,26.9 162.2,26.9 164.5,14 		"/>
		<polygon class="st0" points="175.6,13.4 173.2,26.9 171,26.9 173.5,13.4 		"/>
		<path class="st0" d="M184.8,14.6l-4.3,1.7l-1.1-0.2l4.4-2.8L184.8,14.6z M182.4,19.8c0-0.3-0.1-0.5-0.3-0.7
			c-0.2-0.2-0.4-0.3-0.7-0.3c-0.6,0-1.2,0.3-1.8,0.9c-0.5,0.5-0.8,1.2-1,2c0.8,0,1.2,0,1.2-0.1c0.8,0,1.4-0.2,1.9-0.6
			C182.2,20.7,182.4,20.3,182.4,19.8z M184.4,19.7c0,1-0.5,1.8-1.5,2.4c-1,0.6-2.3,0.9-3.9,0.9c0,0-0.2,0-0.6,0v0.4
			c0,1.5,0.6,2.3,1.9,2.3c0.7,0,1.5-0.3,2.4-0.8l0.6,1.1c-1.4,0.8-2.7,1.1-3.8,1.1c-1.1,0-1.9-0.3-2.4-0.8c-0.6-0.7-1-1.5-1-2.7
			c0-1.6,0.6-3,1.7-4.2c1.2-1.2,2.5-1.8,4-1.8c0.8,0,1.4,0.2,1.9,0.6C184.2,18.5,184.4,19,184.4,19.7z"/>
		<path class="st0" d="M193.2,18.2l-0.8,1.2c-0.5-0.3-1-0.5-1.5-0.5c-0.9,0-1.7,0.4-2.3,1.2c-0.6,0.8-1,1.7-1,2.9
			c0,0.8,0.2,1.5,0.5,1.9c0.3,0.5,0.8,0.7,1.4,0.7c0.5,0,1.2-0.2,1.9-0.6l0.6,1.2c-1.2,0.6-2.3,0.9-3.3,0.9c-1,0-1.9-0.3-2.5-1
			c-0.6-0.7-1-1.6-1-2.8c0-1.5,0.5-2.9,1.6-4c1.1-1.1,2.4-1.7,3.9-1.7C191.7,17.5,192.5,17.7,193.2,18.2z"/>
		<path class="st0" d="M199.6,17.7l-0.2,1.2h-2.2l-0.8,4.4c-0.1,0.7-0.2,1.2-0.2,1.4c0,0.6,0.3,0.9,0.8,0.9c0.3,0,0.7-0.1,1.2-0.3
			l0.1,1.2c-0.8,0.3-1.5,0.5-2.3,0.5c-1.4,0-2.1-0.6-2.1-1.8c0-0.2,0.1-0.8,0.3-1.8l0.8-4.6h-1.1l0.2-1.2h1.2l0.4-2.2l2.2-0.5
			l-0.5,2.8H199.6z"/>
		<path class="st0" d="M206.9,18.2l-1.1,1.6c-0.3-0.1-0.6-0.2-0.9-0.2c-0.7,0-1.2,0.3-1.6,1c-0.3,0.5-0.6,1.3-0.8,2.4l-0.7,3.8h-2.2
			l1.7-9.2h2.2l-0.3,1.7l0.7-0.9c0.5-0.7,1.1-1.1,1.6-1.1C205.9,17.5,206.4,17.7,206.9,18.2z"/>
		<path class="st0" d="M210.3,17.7l-1.7,9.2h-2.2l1.7-9.2H210.3z M211,14.7c0,0.4-0.1,0.8-0.4,1.1c-0.3,0.3-0.6,0.4-1,0.4
			c-0.3,0-0.6-0.1-0.8-0.3c-0.2-0.2-0.3-0.5-0.3-0.8c0-0.4,0.1-0.8,0.4-1.1c0.3-0.3,0.6-0.4,1-0.4c0.3,0,0.6,0.1,0.8,0.3
			C210.9,14.1,211,14.4,211,14.7z"/>
		<path class="st0" d="M219.5,18.2l-0.8,1.2c-0.5-0.3-1-0.5-1.5-0.5c-0.9,0-1.7,0.4-2.3,1.2c-0.6,0.8-1,1.7-1,2.9
			c0,0.8,0.2,1.5,0.5,1.9c0.3,0.5,0.8,0.7,1.4,0.7c0.5,0,1.2-0.2,1.9-0.6l0.6,1.2c-1.2,0.6-2.3,0.9-3.3,0.9c-1,0-1.9-0.3-2.5-1
			c-0.6-0.7-1-1.6-1-2.8c0-1.5,0.5-2.9,1.6-4c1.1-1.1,2.4-1.7,3.9-1.7C218,17.5,218.8,17.7,219.5,18.2z"/>
		<path class="st0" d="M226.5,20.3c0-0.4-0.1-0.8-0.4-1.1c-0.3-0.3-0.6-0.4-1.1-0.4c-0.8,0-1.5,0.5-2.1,1.4c-0.6,0.9-0.8,2-0.8,3.3
			c0,1.3,0.4,2,1.3,2c0.9,0,1.6-0.6,2.3-1.9C226.2,22.6,226.5,21.5,226.5,20.3z M229.2,17.7l-1.7,9.2h-2.2l0.3-1.5
			c-0.7,0.7-1.3,1.1-1.7,1.4c-0.5,0.2-1,0.4-1.5,0.4c-0.8,0-1.5-0.3-1.9-1c-0.5-0.6-0.7-1.5-0.7-2.6c0-1.6,0.5-3,1.5-4.2
			c1-1.2,2.1-1.8,3.5-1.8c0.9,0,1.6,0.4,2.2,1.3l0.2-1H229.2z"/>
		<line class="st1" x1="73.6" y1="13.7" x2="73.6" y2="46.9"/>
	</g>
	<path class="st2" d="M14.7,2.5h41.1c3.8,0,6.5,3.1,6,6.9l-5.8,41.1c-0.5,3.8-4.1,6.9-7.9,6.9H7c-3.8,0-6.5-3.1-6-6.9L6.8,9.4
		C7.4,5.6,10.9,2.5,14.7,2.5z"/>
	<path class="st3" d="M12.1,7.9h15.3c-3,1.5-5.5,4.7-6.2,9.3H10.8L12.1,7.9z"/>
	<path class="st3" d="M33.5,21.5l-2.8,20c-0.9,6.1,3,10,7.7,10.9h-9.1c-5,0-8.7-5.2-8.1-9.7l3.5-25.1c0.7-5,5.7-9.6,11.2-9.6h19.9
		l-1.3,9.3l-16.2,0C36,17.2,33.8,19.1,33.5,21.5z"/>
	<path class="st3" d="M49.7,52.4h-2.3c-4.6,0-14.1-3.3-13.3-9.3H51L49.7,52.4z"/>
	<polygon class="st3" points="36.6,25.1 53.4,25.1 52.1,34.4 35.3,34.4 	"/>
</g>
</svg>
